<?xml version="1.0" encoding="UTF-8" standalone="no"?>
<svg
   width="512"
   height="512"
   version="1.1"
   viewBox="0 0 512 512"
   id="svg1015"
   sodipodi:docname="goverlay.svg"
   inkscape:version="1.1 (c4e8f9ed74, 2021-05-24)"
   xmlns:inkscape="http://www.inkscape.org/namespaces/inkscape"
   xmlns:sodipodi="http://sodipodi.sourceforge.net/DTD/sodipodi-0.dtd"
   xmlns="http://www.w3.org/2000/svg"
   xmlns:svg="http://www.w3.org/2000/svg">
  <defs
     id="defs1019" />
  <sodipodi:namedview
     id="namedview1017"
     pagecolor="#ffffff"
     bordercolor="#666666"
     borderopacity="1.0"
     inkscape:pageshadow="2"
     inkscape:pageopacity="0.0"
     inkscape:pagecheckerboard="0"
     showgrid="false"
     inkscape:zoom="1.3300781"
     inkscape:cx="255.62408"
     inkscape:cy="256"
     inkscape:window-width="1920"
     inkscape:window-height="1021"
     inkscape:window-x="0"
     inkscape:window-y="0"
     inkscape:window-maximized="1"
     inkscape:current-layer="svg1015" />
  <g
     fill-rule="evenodd"
     id="g1007">
    <path
       d="m471.95 253.05c0 120.9-98.01 218.9-218.9 218.9-120.9 0-218.9-98.01-218.9-218.9 0-120.9 98.01-218.9 218.9-218.9 120.9 0 218.9 98.01 218.9 218.9"
       fill="#a3c23b"
       id="path997" />
    <path
       d="m256 1c-140.83 0-255 114.17-255 255s114.17 255 255 255 255-114.17 255-255-114.17-255-255-255m8.827 44.931c120.9 0 218.9 98 218.9 218.9s-98 218.9-218.9 218.9-218.93-98-218.93-218.9 98.03-218.9 218.93-218.9"
       fill-opacity=".067"
       id="path999" />
    <g
       fill-opacity=".129"
       id="g1005">
      <path
         d="m256 4.433c-138.94 0-251.57 112.63-251.57 251.57s112.63 251.57 251.57 251.57 251.57-112.63 251.57-251.57-112.63-251.57-251.57-251.57m5.885 38.556c120.9 0 218.9 98 218.9 218.9s-98 218.9-218.9 218.9-218.93-98-218.93-218.9 98.03-218.9 218.93-218.9"
         id="path1001" />
      <path
         d="m256 8.356c-136.77 0-247.64 110.87-247.64 247.64s110.87 247.64 247.64 247.64 247.64-110.87 247.64-247.64-110.87-247.64-247.64-247.64m2.942 31.691c120.9 0 218.9 98 218.9 218.9s-98 218.9-218.9 218.9-218.93-98-218.93-218.9 98.03-218.9 218.93-218.9"
         id="path1003" />
    </g>
  </g>
  <path
     d="m321.97 495.55c54.595-71.533 132.11-45.044 151.91-227.42l-159.45-159.96-10.554 3.1386-65.765-2.6884c-17.137 5.4794-18.965 1.6947-43.118 6.9333-83.391 4.3516-73.921 23.44-71.247 58.663l-1.0389 29.667-8.4592 82.299"
     color="#000000"
     fill="#000000"
     opacity=".25"
     style="-inkscape-stroke:none"
     id="path1009" />
  <path
     d="m253.04 7.859c-135.42 0-245.19 109.78-245.19 245.19 0 135.42 109.78 245.19 245.19 245.19 135.42 0 245.19-109.78 245.19-245.19 0-135.42-109.78-245.19-245.19-245.19zm0 26.297c120.9 0 218.9 98 218.9 218.9s-98 218.9-218.9 218.9-218.93-98-218.93-218.9 98.03-218.9 218.93-218.9z"
     fill="#ffffff"
     fill-rule="evenodd"
     stroke="#000000"
     stroke-opacity=".31"
     stroke-width="4.904"
     id="path1011" />
  <path
     d="m 202.14899,150.96707 c -16.66067,-1.93422 -27.99125,9.18754 -35.28853,23.35351 -10.08872,-13.95716 -22.19958,-21.55117 -39.32182,-24.16677 -5.74772,-0.85721 -13.30876,-1.28581 -17.08928,4.03329 -4.16517,5.87959 1.50561,19.14439 5.40702,24.12281 2.65956,3.43983 5.92355,7.56104 10.0008,9.39635 5.83563,2.74748 12.27571,1.59354 17.47393,5.62683 -2.0661,-0.60445 -3.78053,-1.28582 -5.96751,-1.28582 -11.93502,-0.0879 -10.73713,11.37454 -16.5288,18.84766 -9.09962,11.71522 -20.902766,21.89186 -20.08951,37.99205 0.90117,17.99045 18.07836,34.21152 35.24457,37.47552 7.98965,1.50561 16.82552,0.56048 24.98002,0.56048 v 1.46166 c -9.83595,0.51652 -21.07861,0.34068 -27.04612,4.341 -3.4728,6.64889 0.044,10.90197 1.37374,16.10019 -2.36283,1.07701 -5.67079,1.8463 -7.08848,4.50586 -3.08816,5.02238 -1.8463,9.79199 -0.25277,15.83643 1.32978,5.11029 4.37398,9.14358 7.85777,12.88015 3.98933,3.35191 11.24266,1.93422 17.68273,1.03305 5.87959,-0.81326 16.10019,-3.35192 21.89186,-4.63774 12.11086,-2.87935 16.86948,-3.98933 29.54082,-3.51676 7.68194,0.25277 11.93502,6.78076 17.63878,11.12177 7.3852,5.67078 16.95739,9.27546 26.48563,8.24241 5.58286,-0.6484 10.47336,-3.78052 14.42972,-7.59401 2.14303,-2.0661 4.12121,-5.36307 7.12145,-6.3082 4.03329,-1.28581 11.12177,2.40679 15.19902,3.22004 12.83619,2.61559 29.06825,0.044 35.28853,-12.83619 l 30.8706,1.50561 14.81437,3.47281 c 11.20969,1.80234 28.07917,5.02238 31.89266,1.8463 4.16516,-2.09907 10.94593,-17.13324 9.39635,-28.28797 -1.50561,-3.94537 -4.76961,-4.84654 -8.96775,-6.22028 1.46166,-6.39612 4.03329,-14.25389 0.90117,-17.34205 -5.71474,-4.68169 -25.88119,-4.59377 -40.6516,-6.01146 7.94569,-9.18755 15.92435,-19.66092 11.12177,-32.15642 -2.18699,-5.67078 -7.29728,-10.34149 -8.84686,-16.10019 -2.14303,-7.81381 1.6265,-16.52879 -0.85721,-24.85913 -1.15394,-3.98933 -2.65955,-8.15449 -5.27515,-11.46245 -2.18698,-2.92331 -6.05543,-4.59377 -7.59401,-7.98965 -2.61559,-5.62682 2.14303,-12.40758 -0.25277,-18.55093 -6.14335,-15.36387 -31.37613,-22.88095 -45.58606,-16.10019 -5.1103,-17.72669 -41.34396,-22.32046 -44.9926,-13.22084 -5.19822,-4.341 -9.31943,-4.59377 -13.78132,-3.98933 -4.54982,0.64841 -11.93502,3.47281 -15.3309,7.51709 -5.79167,-4.41794 -21.97978,-5.24218 -25.88119,8.24241 m 0.13188,-0.0439"
     style="fill:#2d2d2d;fill-opacity:1;fill-rule:evenodd;stroke-width:10.9899"
     id="path33" />
  <path
     d="m 225.63438,153.89038 c -0.56048,-1.24186 -0.94513,-3.08816 -1.97818,-4.16517 -5.67078,-5.92355 -12.4955,-1.28582 -16.1881,4.20913 -1.4177,2.09906 -2.79143,5.71474 -5.62683,6.35215 -2.57163,0.56049 -4.16516,-2.02214 -5.62682,-3.51676 -8.53914,1.75838 -17.94649,9.91288 -20.60604,19.01251 12.66035,0.56048 21.80394,-10.17664 35.28853,-7.29729 8.11054,1.75838 22.45235,7.76985 22.88095,17.51788 0.38465,8.28638 -9.05567,15.53971 -15.58366,19.23231 -7.98965,4.54981 -16.57275,0.90117 -24.98002,2.70351 2.92331,6.48403 9.86892,15.02318 10.42941,21.93582 1.03305,12.18779 -6.69285,20.60604 -11.46246,30.6508 -2.4947,5.31911 -0.69236,10.98989 -2.61559,16.30899 -3.00024,8.11054 -13.73736,9.31943 -21.33138,10.0008 1.12097,5.62683 4.59378,9.36339 6.61592,14.59458 1.28581,3.30795 1.1979,6.91264 2.61559,10.22059 5.36307,12.66036 15.40783,13.99013 27.51868,14.63854 1.89026,-2.40679 4.50586,-6.528 8.1545,-4.54982 3.39588,1.8463 3.90141,7.38521 5.92355,10.34149 5.49495,7.98965 18.5839,15.45178 28.55173,13.86924 5.45099,-0.85721 11.4185,-4.12121 13.30876,-9.5722 1.24186,-3.43983 -1.54958,-10.90197 3.17608,-12.40758 4.41793,-1.4177 8.53914,6.01147 11.63829,8.1545 6.7368,4.63773 15.45178,5.49494 23.35351,4.16516 4.50586,-0.76929 12.53947,-2.4947 14.20993,-7.47312 1.28582,-3.73656 -5.1103,-11.46245 0.85721,-13.22084 4.59377,-1.32977 8.28638,4.41794 11.55037,6.61592 6.91264,4.59377 19.18835,4.37397 25.67238,-1.15394 8.24242,-7.08848 12.27571,-21.97978 5.53891,-31.21129 -2.49471,-3.39587 -10.34149,-6.86868 -9.61615,-11.71522 0.51652,-3.4728 5.19821,-4.8905 7.63797,-6.7368 5.1103,-3.94537 9.18755,-10.08872 8.49518,-16.7376 -0.69236,-6.57196 -5.62682,-12.45155 -10.34148,-16.70463 -2.36283,-2.0661 -5.74771,-3.82448 -7.08848,-6.82472 -2.27491,-5.19822 3.82448,-6.64889 7.51708,-7.16541 1.46166,-9.91288 -0.72533,-21.50721 -10.4294,-26.74939 -5.24218,-2.87935 -11.89106,-3.35192 -17.56184,-5.40703 3.56072,-4.46189 10.13267,-6.86868 12.74827,-11.8471 7.08848,-13.56152 -17.81461,-22.23254 -27.69452,-21.37533 -3.64865,0.29673 -7.51709,3.43983 -11.16573,2.70351 -4.54981,-0.85721 -6.26424,-8.06658 -9.52823,-10.94593 -5.53891,-4.8905 -19.66092,-11.59433 -26.79335,-6.44007 -2.96727,2.14303 -3.98933,6.7368 -5.19822,9.95684 -2.09907,-3.0442 -3.94537,-6.9566 -6.78076,-9.36339 -9.36339,-7.81381 -19.10043,4.16517 -25.58446,9.36339 m 0.0879,0.044"
     style="fill:#ffffff;fill-opacity:1;fill-rule:evenodd;stroke-width:10.9899"
     id="path35" />
  <path
     d="m 160.98087,184.58514 c -3.22004,-12.0669 -15.88039,-22.45235 -27.90333,-25.3317 -4.12121,-0.98909 -12.92411,-2.70351 -15.02318,2.36283 -1.93422,4.76961 2.52768,10.60524 5.49495,13.9132 6.05542,6.82472 11.71522,6.30819 19.83675,8.19845 7.12144,1.62651 10.38544,3.39588 17.63877,0.85722 m -0.044,0"
     style="fill:#e4b9b7;fill-opacity:1;fill-rule:evenodd;stroke-width:10.9899"
     id="path37" />
  <path
     d="m 180.09228,184.58514 c 2.31887,5.06634 5.83564,11.28661 10.69317,14.38576 10.38544,6.7368 30.44199,5.83563 33.87083,-8.53914 3.47281,-14.55062 -20.82584,-17.47393 -29.8815,-14.16597 -5.27515,1.97818 -9.86892,5.45099 -14.72645,8.33034 m 0.0439,0"
     style="fill:#e4b9b7;fill-opacity:1;fill-rule:evenodd;stroke-width:10.9899"
     id="path39" />
  <path
     d="m 168.08034,187.03588 v 0.81325 c 0,0.7693 6.1873,8.53915 3.86844,23.01283 -2.02214,7.12145 -5.96751,13.60548 -9.91288,20.35328 -2.0661,2.18698 -3.78052,3.73656 -7.98965,3.6926 -6.39612,-2.0661 -5.79167,-6.9566 -7.68193,-10.85801 -3.69261,2.2749 -8.3743,10.04476 -13.05599,9.27546 -5.31911,-0.81325 -6.61592,-11.80314 -13.05599,-9.0117 -3.6926,1.6265 -8.28638,7.98964 -10.0008,11.24265 -9.36339,18.11134 3.56072,37.81621 22.08968,43.35511 11.55037,3.39588 25.58446,4.41794 37.26671,1.89026 4.03329,-0.90117 8.96775,-0.76929 12.61639,-4.07724 5.06634,-4.03329 3.90141,-14.63854 6.57196,-19.95764 3.90141,-7.94569 9.09962,-13.05599 9.57219,-22.45235 0.29673,-5.83563 -4.46189,-9.83595 -7.04452,-14.59457 -6.14335,-11.20969 -12.11086,-24.77121 -23.13372,-32.58502 m -0.0879,-0.0879"
     style="fill:#e4b9b7;fill-opacity:1;fill-rule:evenodd;stroke-width:10.9899"
     id="path41" />
  <path
     d="m 150.68334,221.11553 h 1.50562 c 3.90141,-2.65956 5.40702,-1.67047 8.84686,1.46165 5.24217,-5.62682 6.78076,-13.60548 5.06634,-19.83675 -7.47313,-11.16572 -14.03409,0.64841 -15.28694,6.64889 -0.81325,4.07724 -0.81325,7.72589 -0.13188,11.71522 m 0,0"
     style="fill:#ffffff;fill-opacity:1;fill-rule:evenodd;stroke-width:10.9899"
     id="path43" />
  <path
     d="m 128.61564,219.60991 h 1.50562 c 3.86844,-2.65955 5.40702,-1.6265 8.84686,1.50562 2.27491,-4.76961 9.66011,-24.29865 -1.50561,-23.65024 -8.62707,0.51652 -8.75895,16.1881 -8.84687,22.19957 m 0,0"
     style="fill:#ffffff;fill-opacity:1;fill-rule:evenodd;stroke-width:10.9899"
     id="path45" />
  <path
     d="m 360.3924,284.48323 c 3.264,3.60468 4.12121,7.04452 5.31911,11.68225 l 29.27706,5.27515 c 0.94513,-2.27491 4.12121,-9.27547 1.24186,-12.40759 -5.27515,-3.51676 -24.90309,-3.39587 -35.89298,-4.54981 m 0.044,0"
     style="fill:#e4b9b7;fill-opacity:1;fill-rule:evenodd;stroke-width:10.9899"
     id="path47" />
  <path
     d="m 136.94598,295.76984 c -2.27491,4.29705 0.85721,6.48404 2.45075,11.4185 11.89106,-1.37374 22.58422,-3.73656 30.39803,-4.03329 l -4.81357,-11.20969 c -10.77009,0.94513 -24.43053,-0.4286 -28.03521,3.86844 m 0,-0.044"
     style="fill:#e4b9b7;fill-opacity:1;fill-rule:evenodd;stroke-width:10.9899"
     id="path49" />
  <path
     d="m 361.01883,328.11308 c 1.80235,8.19846 -4.50585,18.24322 -13.05598,25.92515 13.13291,3.90141 36.57435,9.14359 41.90444,7.38521 5.31911,-2.27491 11.6383,-18.8037 8.8029,-23.82608 -4.29704,-4.41794 -25.41961,-7.12145 -37.69531,-9.48428 m 0.0439,0"
     style="fill:#e4b9b7;fill-opacity:1;fill-rule:evenodd;stroke-width:10.9899"
     id="path51" />
  <path
     d="m 131.06639,315.56263 c -2.40679,5.40703 0.60444,19.66091 7.90173,23.78212 15.3309,1.62651 32.83779,-4.72565 48.16868,-8.67102 -8.49518,-6.05543 -15.11109,-12.58342 -15.83643,-22.88095 -13.6934,2.45075 -32.24433,2.02214 -40.22299,7.76985 m 0,0"
     style="fill:#e4b9b7;fill-opacity:1;fill-rule:evenodd;stroke-width:10.9899"
     id="path53" />
</svg>
