/* XPM */
static char *app___x__[] = {
/* columns rows colors chars-per-pixel */
"16 16 46 1",
"  c black",
". c #012048",
"X c #07254C",
"o c #0A274C",
"O c #0D2B53",
"+ c #0D2C53",
"@ c #132851",
"# c #142951",
"$ c #152952",
"% c #203555",
"& c #23385A",
"* c #243858",
"= c #1F3E74",
"- c #3A455B",
"; c #3D495F",
": c #334F7F",
"> c #315A70",
", c #335D76",
"< c #385F76",
"1 c #395F76",
"2 c #484848",
"3 c #404A5E",
"4 c #414B61",
"5 c #415E6C",
"6 c #0D458A",
"7 c #184985",
"8 c #2A5084",
"9 c #395CA1",
"0 c #2E69B7",
"q c #3B6BB0",
"w c #306ABA",
"e c #316BBB",
"r c #356EBD",
"t c #366FBD",
"y c #3770BE",
"u c #4475A0",
"i c #1376D9",
"p c #1689ED",
"a c #178AED",
"s c #178CF0",
"d c #4FADFB",
"f c #5BB3FA",
"g c #5FB3F8",
"h c #968EA3",
"j c gray100",
"k c None",
/* pixels */
"kkkkkkkkkkkkkkkk",
"kkkkkkkkkkkkkkkk",
"60eeeeeeeerryq7k",
"isppapppppfdgh9.",
"u>,,,,,,,,11158X",
"3             #+",
"; 2jj2   j    @O",
"- j22j j j2   @O",
"- j      2j   @O",
"; j22j j  j2  @O",
"; 2jj2    2j  @O",
";             @O",
"4             #O",
":%&&&&&&&&&*&*=o",
"kkkkkkkkkkkkkkkk",
"kkkkkkkkkkkkkkkk"
};
