/* XPM */
static char *app___x__[] = {
/* columns rows colors chars-per-pixel */
"32 32 53 1",
"  c black",
". c #0B1F3C",
"X c #0B203C",
"o c #0A203D",
"O c #0B203D",
"+ c #2D2D2D",
"@ c #0A2342",
"# c #092445",
"$ c #092545",
"% c #082648",
"& c #013A69",
"* c #003B6C",
"= c #484848",
"- c #D46D4D",
"; c #D47353",
": c #00349A",
"> c #073B9B",
", c #003FA5",
"< c #204D98",
"1 c #214D98",
"2 c #214F9B",
"3 c #214F9D",
"4 c #21509D",
"5 c #134AA6",
"6 c #214CA1",
"7 c #2751A3",
"8 c #2E58A8",
"9 c #3168AF",
"0 c #2760B5",
"q c #2763B5",
"w c #3968B2",
"e c #4D699E",
"r c #6A779A",
"t c #4D79AE",
"y c #637FB3",
"u c #0067CD",
"i c #006CD2",
"p c #0C6FD1",
"a c #1575D4",
"s c #007BE1",
"d c #778EB8",
"f c #3B8AD2",
"g c #0C82E4",
"h c #1586E5",
"j c #3F91E2",
"k c #3F9EEE",
"l c #4C90DD",
"z c #5A95D6",
"x c #7FBBF6",
"c c #77C0EA",
"v c #7FC0FC",
"b c gray100",
"n c None",
/* pixels */
"nnnnnnnnnnnnnnnnnnnnnnnnnnnnnnnn",
"nnnnnnnnnnnnnnnnnnnnnnnnnnnnnnnn",
"nnnnnnnnnnnnnnnnnnnnnnnnnnnnnnnn",
"nnnnnnnnnnnnnnnnnnnnnnnnnnnnnnnn",
"nn*4333333333333333333333333&nnn",
"n>0llllllllllllllllllllllllzw8nn",
"n0uuuuuuuuuuuuuuuuuupxjaxje-9:%n",
"nissssssssssssssssssgvkhvkt;r,$n",
"nfccccccccccccccccccccccccccc5$n",
"nd                           7$n",
"nd                           7#n",
"nd                           7$n",
"nd                           7$n",
"nd   =bbb=    b              7$n",
"nd   b= =b    b=             7#n",
"nd   b      b =b             7$n",
"nd   b         b=            7$n",
"nd   b= =b     =b            7$n",
"nd   =bbb=  b   b bbbbbbb    7#n",
"nd                           7$n",
"nd                           7$n",
"nd                           7$n",
"nd                           7#n",
"nd                           7$n",
"nd                           7$n",
"nd                           7$n",
"nd+++++++++++++++++++++++++++6#n",
"n<<<<<<<<<<<<<<<<<<<<<<<<<<<<<@n",
"nnXX.........................XXn",
"nnnnnnnnnnnnnnnnnnnnnnnnnnnnnnnn",
"nnnnnnnnnnnnnnnnnnnnnnnnnnnnnnnn",
"nnnnnnnnnnnnnnnnnnnnnnnnnnnnnnnn"
};
