/* XPM */
static char * icewm_xpm[] = {
"98 30 254 2",
"  	c None",
". 	c #227559",
"+ 	c #3A7C3A",
"@ 	c #367836",
"# 	c #397C48",
"$ 	c #357D36",
"% 	c #3A833B",
"& 	c #3E9740",
"* 	c #388237",
"= 	c #348534",
"- 	c #2E8231",
"; 	c #29752A",
"> 	c #1F5641",
", 	c #3168D5",
"' 	c #1D6650",
") 	c #4A964A",
"! 	c #5A9E5A",
"~ 	c #65A564",
"{ 	c #5FA160",
"] 	c #6AAB6A",
"^ 	c #60A15F",
"/ 	c #5CA25C",
"( 	c #58A457",
"_ 	c #539C53",
": 	c #57A757",
"< 	c #4AB24A",
"[ 	c #55A255",
"} 	c #579D58",
"| 	c #4C9C4C",
"1 	c #439542",
"2 	c #3A8C3B",
"3 	c #216F7B",
"4 	c #3888E9",
"5 	c #67AC68",
"6 	c #7AB47A",
"7 	c #8DC090",
"8 	c #93C394",
"9 	c #9ABC92",
"0 	c #8BBE8B",
"a 	c #8DC08D",
"b 	c #82BC82",
"c 	c #7DBA7D",
"d 	c #77B877",
"e 	c #7FBA80",
"f 	c #6EB16E",
"g 	c #70AF70",
"h 	c #65AB65",
"i 	c #5DA85D",
"j 	c #489345",
"k 	c #4B744B",
"l 	c #4A92E6",
"m 	c #90A37A",
"n 	c #72B172",
"o 	c #307CE5",
"p 	c #50A24F",
"q 	c #499B45",
"r 	c #286ADD",
"s 	c #4F9E50",
"t 	c #4BA14B",
"u 	c #3B943B",
"v 	c #31723E",
"w 	c #235BD6",
"x 	c #245CDB",
"y 	c #73AD6B",
"z 	c #AF9A4F",
"A 	c #DF9541",
"B 	c #F5A24F",
"C 	c #CAA022",
"D 	c #8B944D",
"E 	c #4AAB46",
"F 	c #47A248",
"G 	c #449C43",
"H 	c #338B34",
"I 	c #30832F",
"J 	c #2B7B2B",
"K 	c #2067AE",
"L 	c #2257D6",
"M 	c #F08A30",
"N 	c #FF7A14",
"O 	c #FFB165",
"P 	c #F66B12",
"Q 	c #D44A08",
"R 	c #9D6E48",
"S 	c #509E4F",
"T 	c #4FA050",
"U 	c #4AA344",
"V 	c #43A344",
"W 	c #3C9A3C",
"X 	c #2C822C",
"Y 	c #278028",
"Z 	c #226C22",
"` 	c #FF8327",
" .	c #FF9943",
"..	c #C63808",
"+.	c #705938",
"@.	c #366736",
"#.	c #4A9D3D",
"$.	c #5CA54B",
"%.	c #49943C",
"&.	c #359335",
"*.	c #247A25",
"=.	c #1E611F",
"-.	c #ED570B",
";.	c #4D6F38",
">.	c #4C7005",
",.	c #628D06",
"'.	c #7ABB24",
").	c #81C926",
"!.	c #8CD612",
"~.	c #82C70B",
"{.	c #A4C49B",
"].	c #E9F0E7",
"^.	c #EFF3EC",
"/.	c #498C35",
"(.	c #468D3A",
"_.	c #45923D",
":.	c #3BA33C",
"<.	c #277728",
"[.	c #1A6770",
"}.	c #A34421",
"|.	c #375A33",
"1.	c #455D1A",
"2.	c #74AB0C",
"3.	c #8CD80C",
"4.	c #9EF10B",
"5.	c #98EA0B",
"6.	c #3C8A34",
"7.	c #458B34",
"8.	c #488937",
"9.	c #BFD2B7",
"0.	c #FEFEFE",
"a.	c #E3EADE",
"b.	c #467B2C",
"c.	c #458433",
"d.	c #459435",
"e.	c #3FA540",
"f.	c #2663E0",
"g.	c #FFAA56",
"h.	c #9F5E2B",
"i.	c #325A2C",
"j.	c #5A7B2E",
"k.	c #CDD8C4",
"l.	c #F4F6F2",
"m.	c #E9EDE5",
"n.	c #A0BE94",
"o.	c #BDCCB2",
"p.	c #CFE2CC",
"q.	c #45822B",
"r.	c #1A654C",
"s.	c #196346",
"t.	c #DB660D",
"u.	c #AC2507",
"v.	c #46641C",
"w.	c #437B27",
"x.	c #ACC6A2",
"y.	c #E3E7DD",
"z.	c #389537",
"A.	c #428C43",
"B.	c #339B33",
"C.	c #5077A6",
"D.	c #555F6A",
"E.	c #36527A",
"F.	c #4C5534",
"G.	c #ABB698",
"H.	c #455415",
"I.	c #476922",
"J.	c #919773",
"K.	c #46AB45",
"L.	c #4D72EE",
"M.	c #5E82FF",
"N.	c #8EA9FF",
"O.	c #9EB5FF",
"P.	c #5A7BFB",
"Q.	c #364CE7",
"R.	c #C7C9B7",
"S.	c #464D11",
"T.	c #456C22",
"U.	c #487427",
"V.	c #1A5E1B",
"W.	c #418F63",
"X.	c #6887FC",
"Y.	c #527BFF",
"Z.	c #A7BDFF",
"`.	c #3242DF",
" +	c #6C852F",
".+	c #DDDFD3",
"++	c #ABAF94",
"@+	c #457324",
"#+	c #487D2C",
"$+	c #2E8E30",
"%+	c #5087AE",
"&+	c #7791F5",
"*+	c #AEC2FF",
"=+	c #819DFF",
"-+	c #566DEC",
";+	c #2F3DDC",
">+	c #375456",
",+	c #A88804",
"'+	c #D0AB0F",
")+	c #AEA629",
"!+	c #9A932D",
"~+	c #F2C40E",
"{+	c #37A638",
"]+	c #3CAB3C",
"^+	c #D6D9CB",
"/+	c #DDE2D6",
"(+	c #579C3D",
"_+	c #47AE48",
":+	c #49AD49",
"<+	c #1E6638",
"[+	c #313FBC",
"}+	c #E6B80B",
"|+	c #F6C70B",
"1+	c #FFD40B",
"2+	c #FFDA0B",
"3+	c #C7CCB9",
"4+	c #459937",
"5+	c #44A33C",
"6+	c #A0A787",
"7+	c #BFC4AE",
"8+	c #296CE1",
"9+	c #32448A",
"0+	c #6C772A",
"a+	c #B19611",
"b+	c #44A63C",
"c+	c #6A904E",
"d+	c #3DB13D",
"e+	c #448A2E",
"f+	c #48832F",
"g+	c #1F6625",
"h+	c #2B72E3",
"i+	c #30942F",
"j+	c #466544",
"k+	c #3D6042",
"l+	c #324CAE",
"m+	c #35A335",
"n+	c #205B29",
"o+	c #28692B",
"p+	c #2E942E",
"q+	c #226324",
"r+	c #A49124",
"s+	c #25733B",
"t+	c #44B244",
"u+	c #1E6E2A",
"v+	c #2C8C2C",
"w+	c #236D2A",
"x+	c #287432",
"y+	c #2662DE",
"z+	c #1E50C4",
"A+	c #246936",
"B+	c #2A7543",
"C+	c #2C733B",
"D+	c #317444",
"E+	c #1941A5",
". + + + + + + @ + + + + + + + + # # $ + + + + + + + + + + % % % & + # % % % % % % + + + + + + + + + + + + + $ $ $ $ $ % % % * % = = = % = % = = % = % * * $ $ % * = % % % * = = = = - ; > , , , , , ",
"' % ) ! ~ ~ ! ! ! ! ! ~ ! ! ! ~ { { { { { { { { { ~ ~ ! { ~ ~ ~ ~ ~ ~ ~ ~ ] ] ~ ~ ! ! ! ! ~ { ^ ^ ^ ^ / / { / ~ ^ ~ ( ( ( ( ( _ : < : : [ _ : [ } [ } ( : [ _ _ | _ | | | | | 1 ) 1 1 2 # 3 4 4 4 4 ",
". _ 5 6 7 8 8 8 8 8 8 8 8 8 8 8 8 8 8 9 7 8 8 8 8 8 0 0 a 0 0 0 0 0 0 0 0 a 9 7 a 0 a a 0 0 0 0 0 0 0 0 7 7 7 8 8 7 0 0 0 0 b b b c c d e e d e c 6 6 d f f f f g 5 ] 5 h i i i ( ( [ ) j k l l l l ",
". ! g b 8 8 8 8 8 8 8 8 8 8 8 8 8 8 8 9 7 7 7 0 0 a 0 a 0 0 0 0 0 0 0 0 0 0 0 0 0 0 a 0 0 0 0 0 0 0 0 0 0 0 0 b b b b b b b b b b b m d d d d n d 6 n n f f f f f 5 f 5 5 h i / [ [ [ _ ) # 3 o o o ",
"' ! d a a 7 0 0 0 0 0 0 b b b b e e b e e c m 6 6 6 6 6 6 6 6 6 6 6 6 6 6 6 6 6 6 6 6 6 6 6 6 6 6 6 6 6 6 f f f g f g g ] n f f f f f f h f h h h h h h h { h i i i { : ( ( p | | | q j 2 % k r r r ",
"' ! d a a e b e 6 6 6 6 6 n n n g g n n f f f ] g ] ] ] ] ] ] ] ] ~ ] ] ] 5 ~ 5 5 5 5 5 h 5 5 h 5 5 5 5 h h h h h 5 i i ^ i i i i { i i : : : : : : : ( : : [ p s t s s | 1 1 1 1 u 2 u 2 $ v 3 w x ",
"' ! 6 m d f f g y ~ ] ~ ] ~ y z A B B C D { ^ ^ / / / / ! ! / / { / ( ( / ( ( ( ( ( ( ( ( ( ( / ( ( ( ( ( ( ( ( ( ( : [ ( [ : p [ t p [ E p t t F t t t F F q F G G 1 & & u u u H H H = I J ; ' K L ",
"' ! g 6 f { { ~ { ^ ! ^ ! ^ M N N B O P Q R _ _ _ } _ _ } _ _ _ _ _ _ _ s _ | s | [ s | [ S S S T T T T T t s s | F t t | t | F F t U F F V F G F G G G & W & W W W u u u 2 H H = = X X Y J J Z K L ",
"' ! ~ g ~ ! } } } _ _ _ _ D N N ` O  .P ..+.@.#.| | S _ $.) | ) ) ) | ) | q ) | F | | F q j %.j j ) F | F | | | F F F F F q F F q F F F 1 %.%.q q V V & G W W W u u u u &.H H H - - X J J *.Z =.K x ",
"' _ ~ ~ / } _ | ) ) ) ) ) z N N M O ` -...;.>.,.'.'.).!.~.j G j 1 1 ) G 1 1 G 1 G G q G 1 {.].^./.%.F F q F F F F F F F F U F F F | F %.{.].^.(._.F V G :.G V & W W W 2 u H H H = - X J <.<.Z =.[.L ",
"' _ { ~ ! _ ) ) j j j j ) M N `  .O P ..}.|.1.2.~.3.4.5.2.& 1 G 1 1 & & 2 (.6.7.8.(.1 1 (.9.0.a.b.(.G G q _.(.(.8.j %.q q q %.(.(.%.(.c.9.0.a.b.d.G V V F e.V & W W W W u &.&.H H X I J *.*.Z =.[.f.",
"' ) ! ! ! j j 1 j 1 & & D ` N ` g. .-...h.i.>.2.~.5.4.!.j.@.u 1 & & u (.k.l.0.0.m.n.c.8.m.0.0.0.0.c._._.o.^.0.0.a.n._.q q p.0.n.{.m.0.m.0.0.0.0.q.q V F V V e.V V W W W u u &.&.H H I X <.*.Z =.r.f.",
"s.) } ! _ 1 1 1 & & & & P t.Q h.R }...u.+.v.,.2.3.5.4.~.;.|.1 u W W u k.0.0.0.0.0.l.n.w.0.0.0.0.m.b.(.x.0.0.0.0.0.m.c.%.%.].0.o.0.0.y.0.0.0.0.m.c.q V V F V V V V e.e.W W W z.u H H X J J ; Z =.> w ",
"s.A.) _ s 1 & u u 2 2 & B.C.D.C.C.E.F.+.|.>.2.~.3.5.4.2.|.@.W W W W d.l.0.G.H.m ^.0.a.@.I.l.0.J.I.c._.^.0.o.I.o.0.0.b.(.%.0.l.0.k.m I.1.0.0.J.I.8.#.K.K.K.K.F V V V G :.W W z.u H H = X <.<.Z =.> x ",
"> A.) _ | & u u 2 u & & 4 L.M.N.O.P.Q.E.i.>.2.~.3.4.!.j.i.v W W W W 6.0.0.R.S.S.H.R.m I.m 0.0.S.T.7.7.q.v.1.H.S.0.0.U.8./.0.0.R.H.I.I.J.0.l.H.U./.F K.K.K.F K.K.V V e.V W W W u &.&.= J J <.Z =.V.f.",
"s.& ) _ q u u u &.u & W.X.Y.X.Z.N.P.`.E.j. +j.j. + + +F.i.% W :.:.:.6.k.0.0.0..+++H.T.T.G.0.m.1.b._.7.G.y.0.0.0.0.m.@+c.x.0.l.H.I.#+U.G.0.m.1.b.#.U K.K.K.K.K.K.K.V V e.e.W W z.u H $+X Y J Z =.V.r ",
"s.% 1 G & W u B.&.B.&.%+P.P.&+*+=+-+;+>+,+'+)+!+)+'+~+;.@.u {+{+]+{+z.w.G..+l.0.0.^+@+@+k.0.^+@+7.q 9.0.0.0.0.0.0./+@+#+k.0.^+v.#+(+7.k.0.^+I./._+:+:+:+_+_+K.K.K.K.K.V V W W W z.H H X Y *.Z =.<+r ",
"r.2 1 & & W B.&.B.B.& l P.P.=+Z.X.-+[+F.,+'+}+|+1+2+'+v @ W {+]+]+]+d.9.T.v.v.3+0.0.w.@+a.0.R.w.4+5+l.0.k.6+H./+0.R.@+#+/+0.7+U./.< %.y.0.3+U.%.E < < < :+< :+E K.K.V :.V :.W W z.H H I X *.Z =.s.8+",
"s.2 u & W u B.&.B.B.W.P.Y.&+Z.O.P.Q.9+0+a+'+~+1+1+1+!+@.2 W ]+]+b+]+z.0./+1.H.++0.0.w.w.m.0.R.v.7.d.0.0.6+S.^+0.0.G.b.#+m.0.++b.#.< 4+m.0.R.U./._+< < :+< :+< :+_+K.V V :.V W W z.&.= X J <.=.=.[.8+",
"s.= u u u B.B.B.B.B.%+P.P.P.&+&+-+`.>+,+'+'+~+1+1+|+c+@ z.]+]+d+d+d+4+0.0.0.0.0.0.k.w.w.a.0.0.0.e+7.].0.0.0.l.0.0.v.#+#+0.0.1.f+b+< (+y.0.0.0.c.U < < < _+< :+_+K.K.K.V V :.W W u &.H I X <.g+=.[.h+",
"r.= u u B.B.i+B.B.B.& k ;.j+|.k+l+l+j+,+'+}+|+2+2+~+k * m+d+d+d+d+d+m+{.a.l.0.l.k.T.e+e+{.l.0.m.d.d.{.l.0.a.6+0.0.U./.{.0.^.U./.< < E {.l.0.m./.E < < _+< _+< _+K.V K.V V e.W W &.H H I X <.Z =.K r ",
"s.H H &.u B.B.B.B.B.$ n+n+o+n+V.i.j+;.a+'+}+1+2+1+)+@ 2 {+d+d+d+d+d+5+e+q.@+@+@+@+w.d.4+e+#+v.e+%.d./.q.I.@+U.v.U./.%.%./.f+/.#.< < $.d.#+I.f+%.U < < _+:+< :+E K.K.K.e.:.G W u u H = I J o+=.=.h+r ",
"s.- 2 &.&.B.B.B.B.m+B.B.B.u p+Y Z j+q+;. +a+'+r+j.F.@ u e.d+d+d+d+d+b+4+e+q.q.q.e+4+b+b+5+d.f+d.5+5+#.d.f+f+f+f+/.5+U b+%.%.#.E < < U #./.f+/.q U < :+< < :+:+K.K.V V V e.W _.u z.H H X J Z =.s+h+f.",
"s.- - &.i+p+i+i+B.m+B.m+B.B.m+m+&.+ @ o+@.i.i.n+@.v 2 {+{+d+d+d+d+d+d+b+5+4+4+4+5+b+E t+b+b+#.b+b+E b+(+#.5+5+#.U b+E E (+U E < < < $.E U q U U E < E < E :+K.E V V V e.V W W u &.H = J *.g+u+K 8+w ",
"s.J - $+v+p+p+i+B.B.B.B.B.B.m+m+B.B.W H - $ @ @ $ H u {+e.d+{+e.d+d+b+d+d+d+b+d+t+t+e.t+t+t+t+t+t+t+t+t+< t+< < < < < < < < < < :+< :+:+:+:+< :+K._+_+:+K.K.F V V F V G W W u u 6.H I J ; q+<+K 8+f.",
"s.<.X - v+p+p+p+p+p+p+p+B.p+p+B.B.B.B.m+B.m+m+m+m+m+m+m+{+e.{+{+{+{+:.]+]+]+]+d+e.b+e.t+t+e.K._+K.K.t+K.K._+_+:+< < _+_+:+_+K._+K.K.:+K.K.E F F U V F V F V F j & G 1 W u u 2 H = = J J w+o+r.4 f.f.",
"s.x+J Y Y p+v+p+p+p+p+p+p+p+p+i+i+p+p+p+i+B.B.B.B.B.B.B.B.B.B.m+m+W W :.:.:.:.:.:.:.:.:.e.K.e.:.e.V V b+V V V K.b+V V V V F V V V F G G G G q G G G 1 G 1 G & & & u 1 u 2 H H = * J ; ; Z <+3 h+w f.",
"s.<.*.*.Y Y Y Y Y v+Y v+v+X v+v+v+v+v+p+v+v+$+$+p+$+v+&.$+$+&.$+i+&.i+&.&.&.u z.&.W W u {+:.W u W W u W W W u W #.1 1 1 W & _.1 1 A.& 1 1 & & 1 1 1 A.& 1 1 & & u 2 2 % * = = $ ; ; ; Z g+<+h+8+w w ",
"s.g+Z Z <.*.*.*.*.*.*.*.*.Y Y *.Y Y Y Y Y X Y X Y X J - X - Y - - X - - X - - = = = H = H = = = = * = = = H % 2 % % % % % % 2 % % % % % % + % % % + % % % % % % * # $ @ * $ ; x+o+o+o+q+g+. 4 y+z+z+",
"s.g+g+A+<+<+s+u+u+u+Z g+u+u+u+u+u+u+Z u+x+w+u+x+x+A+s+s+B+B+B+B+B+B+s+s+s+C+C+C+C+s+C+C+C+C+C+C+s+C+x+C+C+C+v v v v v C+v v v C+v v v v v v D+v D+C+v v D+D+B+D+D+B+D+B+B+s+@.v A+<+A+A+<+h+8+w E+E+"};
