/* XPM */
static char * taskbuttonactive_xpm[] = {
"162 30 75 1",
" 	c None",
".	c #3168D5",
"+	c #3888E9",
"@	c #4993E6",
"#	c #307BE5",
"$	c #1666EC",
"%	c #175DCF",
"&	c #2266D5",
"*	c #1E64D3",
"=	c #1C62D2",
"-	c #1356CB",
";	c #1460E0",
">	c #286ADD",
",	c #115BE9",
"'	c #0F358A",
")	c #123C92",
"!	c #123D94",
"~	c #143E95",
"{	c #133E97",
"]	c #174BB9",
"^	c #245DD7",
"/	c #08296F",
"(	c #17459C",
"_	c #184AA6",
":	c #164CA8",
"<	c #1C4CA4",
"[	c #0D399C",
"}	c #2359D6",
"|	c #144096",
"1	c #1951B9",
"2	c #184EB8",
"3	c #1D53B8",
"4	c #2257D5",
"5	c #164DBC",
"6	c #1A52B8",
"7	c #2257D6",
"8	c #174CBA",
"9	c #1A50B8",
"0	c #2157D7",
"a	c #2259D7",
"b	c #225AD9",
"c	c #082970",
"d	c #0D3B9D",
"e	c #235BD9",
"f	c #174EB8",
"g	c #2156B7",
"h	c #235CDB",
"i	c #0E3CA2",
"j	c #245DDB",
"k	c #245EDC",
"l	c #2558B7",
"m	c #255FDC",
"n	c #1C55B7",
"o	c #2660DD",
"p	c #092B72",
"q	c #2661DD",
"r	c #2662DF",
"s	c #2A5DB6",
"t	c #2663E0",
"u	c #2259B8",
"v	c #1F55B8",
"w	c #2652B0",
"x	c #2561DE",
"y	c #0D4EDE",
"z	c #1B4EB3",
"A	c #0E44BF",
"B	c #0E4BD1",
"C	c #0C3CAE",
"D	c #0C3CA9",
"E	c #0C3CAC",
"F	c #1E50C4",
"G	c #2557CA",
"H	c #1941A5",
"I	c #0E3BA1",
"J	c #264FAD",
"..................................................................................................................................................................",
"++++++++++++++++++++++++++++++++++++++++++++++++++++++++++++++++++++++++++++++++++++++++++++++++++++++++++++++++++++++++++++++++++++++++++++++++++++++++++++++++++",
"@@@@@@@@@@@@@@@@@@@@@@@@@@@@@@@@@@@@@@@@@@@@@@@@@@@@@@@@@@@@@@@@@@@@@@@@@@@@@@@@@@@@@@@@@@@@@@@@@@@@@@@@@@@@@@@@@@@@@@@@@@@@@@@@@@@@@@@@@@@@@@@@@@@@@@@@@@@@@@@@@@",
"##$%&&&&&&&&&&&&************************************************************************===*===*===========*===========*=====================================%-;##",
">,'))!!!))!!!))~!!)))))))))))))))))))))~))))))))))))!!!!!!!!!!!!!!!!!!!!!!!!!!!!{!!!){){)){!!!!!!!!!))){!!!!!!!!))!!!!!!!!!{)){)!!!!!!)~!!!!!!!!!!!!!!!!!!!!{)!']>",
"^/~(___________________________________________________________________________________:_:__________:_______________________:__________________________________<[^",
"}/|:111111111111111111111111111111111111111111111111111111111111111111111111111111112111211111111111112111111111111111111111112111111111111111111111111111111113[}",
"4/|5111111111111111111111111111111111111111111111111111111111111111111111111111111111111211111111111111111111111111111111111111111111111111111111111111111111123[4",
"4/|5611311111111111111111111111111111121111111231211111111111112111111111111111121111131111212321111211211111111121313121121131111111111111111111111111111111113[4",
"7/|8992929999999999999996199999923233232232222322321223232323223223232322122322332322122123333231132321312232332132222131232123299999999999999991299999999992233[7",
"0/|8999999999999999999992999999932232233322332232332233232233223322322323223322332233223232221223223322323322222123232321233232199999999999999999999999999992333[0",
"a/|8999999999999999999999999999922322322323223323223322323222322232323232332223223222332323232322322232222323233232321222322223299999999999999999999999999993223[a",
"bc|8669999999999999999999999999922323223223222322232232223223223123223222322332332332232223232332322322332232332332332232332322399999999999999999999999999999913db",
"ec|f62999999999999999999999999993223232232233223232332323232232323322332223322222222332223322222323223232323222222222332322323329999999999999999999999999999992gde",
"hc|829999999999999999999999999992332232332232332332222332233232232233223323223322332232332232332223323222322322323322222222222229999999999999999999999999999999gih",
"jc|862999999999999999999999999992322322322322322223223222322322323222232232232233223223223223223232232233223233232233233233233239999999999999999999999999999999gdj",
"kc~299999999999999999999999999993223223223223223322323322322322323223223322322322322322322322322232232232232232222322322322322329999999999999999999999999999993lik",
"j/~299999999999999999999999999992332232332232332232232232233232232322332233223233232233232233232223323223322223323323223323223329999999999999999999999999999913lij",
"kc~299999999999999999999999999992222332223322222232322223232232322332222222233222233222223322233323223232323323232233223223232239999999999999999999999999999993lik",
"mc~2999999999999999999999999999932332232223232333223233223223223232233233233223223223323232223222322322322322322232223223223232299999999999999999999999999261n3ldm",
"op~29999999999999999999999999999232232g232232332223232332322232232232232232232233223223232232332232223223223322323223223322323229999999999999999999999999999133lio",
"qp~299999999999999999999999999993223222223232222233222223223322323223223322322322322322323323223322332232332233232322323223232239999999999999999999999999999113ldq",
"rp~29999999999999999999999999999322332232322322332232332233232222323322332233232232332232222222223323223222222222233232232322332999999999999999999999999999913gsir",
"rc~39999999999999999999999999999232232223223233223223223223223223223223223223222322322323233233222322322332332322322322332232232999999919999999999999999999913gsir",
"tp~69ng39g9n339ng999g9g99g3333333333333333333333g33333333333332g33332g2333333333g2g32332g2g22g22gg3333333332g23333g2g2333333333333333333g999g9g99g3333332g233gusit",
"tc~6gggggglggggggglggggggggggggggggggggggggggggggggggggggggggggggggggglggggggggggggll3lglgglggllggggggggvlwlglggggggggllgggggggggggggggggglggggggggggggggglgglssdt",
"xy)zgggggggggggggggggglggggggggggglwggggggggggwlgggggggggglwggglgggglglwgggggglwggggvllwgggglglwggggggggvvllggggggggggwlgggggggggggggggggggggglgggggggggllllglg3Ax",
"eeBCDCCCCDCCCCDCCCDDDDDDDDDDDDDDDDCDDDDDDDDDDCDDDDDDCDCCCCCEDCCDCDCCDCCECDCCCCCDEEEEEEEECCCCCCCCCCCCCCCCCCECCCCCCCCCCCCCCCCCCCCCCCCCCCCCCCCCCCCCCCCCCCCCCCCCCCCBee",
"FFFFFGFFFFFFFFFFFFFFFFFFFFFFGFFFFFFFFFFFFFFFFFFFFFFFFFFFFFFFFFFFFFGFFFFFFFGFFFFFFFGFFFFFFFGFFFFFFFFFFGFFFFFFFFFFFFFFFFFFFFFFFFFFFFFFFFFFFFFFFFFFFFFFGFFFFFFFFFFFFF",
"HHHIiHJiHHHHHHHHHHHHHHHHHHHHiHHHHHHHHHHHiJHIHHHHHHHHiJHIHHHHHHHHHiHHJiHIJiiIHHHHiiiJHHHHJiiiHHHHHHHHiHHDHHHHHHHHDJHIHHHHHHIJiJiIHHHHHHHHHHHHHHHHHHHHiHHHHHHHHHHHHH"};
