/* XPM */
static char * taskbuttonbg_xpm[] = {
"159 30 91 1",
" 	c None",
".	c #3168D5",
"+	c #2D6DD7",
"@	c #3888E9",
"#	c #4993E6",
"$	c #307BE5",
"%	c #2D74EC",
"&	c #3475DA",
"*	c #3172DA",
"=	c #306FD9",
"-	c #2966D3",
";	c #286DE5",
">	c #286ADD",
",	c #2C6AE8",
"'	c #519AF6",
")	c #579AF5",
"!	c #4892F7",
"~	c #488CF6",
"{	c #3E87F5",
"]	c #3982F4",
"^	c #2B64E0",
"/	c #265EC4",
"(	c #245DD7",
"_	c #6DA4F6",
":	c #70AAFA",
"<	c #68A7F7",
"[	c #5F9FF5",
"}	c #5D98F5",
"|	c #5A98F2",
"1	c #5088EE",
"2	c #4D8BF1",
"3	c #4587F5",
"4	c #488BF2",
"5	c #3672EA",
"6	c #2750AD",
"7	c #2359D6",
"8	c #71A6F6",
"9	c #5594F1",
"0	c #5490F0",
"a	c #4386F2",
"b	c #4286F4",
"c	c #4089F4",
"d	c #4083F1",
"e	c #3F84F4",
"f	c #3D81F3",
"g	c #2257D5",
"h	c #3D82F4",
"i	c #3A82F4",
"j	c #397DF3",
"k	c #3A80F3",
"l	c #3978F1",
"m	c #2257D6",
"n	c #264FAD",
"o	c #2157D7",
"p	c #2259D7",
"q	c #225AD9",
"r	c #6BA2F6",
"s	c #235BD9",
"t	c #3980F4",
"u	c #2653AE",
"v	c #235CDB",
"w	c #639BFB",
"x	c #397BF4",
"y	c #3676EB",
"z	c #245DDB",
"A	c #245EDC",
"B	c #2650AF",
"C	c #3A82F6",
"D	c #2652B0",
"E	c #255FDC",
"F	c #5F99FA",
"G	c #2660DD",
"H	c #377BF6",
"I	c #2661DD",
"J	c #3782FA",
"K	c #2662DF",
"L	c #548EF1",
"M	c #397BF6",
"N	c #2663E0",
"O	c #397BF2",
"P	c #2561DE",
"Q	c #2556D2",
"R	c #316FE8",
"S	c #316CE4",
"T	c #2557CA",
"U	c #245BDA",
"V	c #2652BC",
"W	c #2653BA",
"X	c #2653B8",
"Y	c #1E50C4",
"Z	c #1941A5",
"..............+................................................................................................................................................",
"@@@@@@@@@@@@@@@@@@@@@@@@@@@@@@@@@@@@@@@@@@@@@@@@@@@@@@@@@@@@@@@@@@@@@@@@@@@@@@@@@@@@@@@@@@@@@@@@@@@@@@@@@@@@@@@@@@@@@@@@@@@@@@@@@@@@@@@@@@@@@@@@@@@@@@@@@@@@@@@",
"###############################################################################################################################################################",
"$%+&&&&&&&&&&&&&***=******************************************************************====================================================================+-;$$",
">,')))))))))'''''!!!!!!!!!!!!!!!!!!!!!!!!!!!!!!!!!!!!!~!!!!!!!!!!!!!!!!!!!!!!!!~!!!!!!!!!!!!!!!!!!!!!!!!!!!!!!!!!!!!~!!!!!!!!!!!!!!!!!!!!!!!!!!!!!!!!!!!!~{]^/>",
"(_:<<<[[}[}}|||12~~~~~~~~~~~~~~~~~~~~~~3~~~~~~~~~~~~~~~~~~~~~~~3~~~~~~~~~~~~~~~~~~~~~~~3~~~~~~~~~~~~~~~~~~~~~~~3~~~~~~~~~~~~~~~~~~~~~~~3~~~~~~~~~~~~~~~~~~4356(",
"78<[|||900022444abbbbbbbbbbbbbbbbbbbcbabbbbbbbbbbbbbbbdbbbbbc3abbbbbbbbbbb3ababebbbbcbabbbbbbbbbbbbbbbbbbbbbc3abbbbbeab3bbbbbbabbbbbcbabbbbbbbbbbbbbbbbbbeef567",
"g8[99224333aa3aadfffffffffffffffffffhhfiffffffffffffhhjhffffffiifffffffffhfjhffiffffhhfiffffffffffffffffffffffiiffffifhjfffffffhfffffhfifffffffffffffffffkjl56g",
"g8|2443aadadaafdikkkkkkkjifijijikkkkkkkkkkkkkkkkijfijijijijikkkkkkkkkkkkjiiijfijkkkkkkkkkkkkkkkkjfijjijiijijkkkkkkkkjkkkjiiijfijkkkkkkkkkkkkkkkkijfiiijikjjl56g",
"m8943aaafeeeeeeeijjjjjjjjjjjjjjjjjjjjjjjjjjjjjjjjjjjjjjjjjjjjjjjjjjjjjjjjjjjjjjjjjjjjjjjjjjjjjjjjjjjjjjjjjjjjjjjjjjjjjjjjjjjjjjjjjjjjjjjjjjjjjjjjjjjjjjjjjjl5nm",
"o_2ccbeeeheeh{ehhjjjjjjjjjjjjjjjjjjjjjjjjjjjjjjjjjjjjjjjjjjjjjjjjjjjjjjjjjjjjjjjjjjjjjjjjjjjjjjjjjjjjjjjjjjjjjjjjjjjjjjjjjjjjjjjjjjjjjjjjjjjjjjjjjjjjjjjjjjl5no",
"p_2ccc{ehfiehhhhiikkkkkkjiijkfjikkkkkkkkkkkkkkkkijijijiikkkkkkkkkkkkkkkkijijkjijkkkkkkkkkkkkkkkkijiiiijikkkkkkkkkkkkkkkkijijkkjikkkkkkkkkkkkkkkkijijjijikkjl5np",
"qr~ce{hhhihhhhhhijjjjjjjjjjjjjjjjjjjjjjjjjjjjjjjjjjjjjjjjjjjjjjjjjjjjjjjjjjjjjjjjjjjjjjjjjjjjjjjjjjjjjjjjjjjjjjjjjjjjjjjjjjjjjjjjjjjjjjjjjjjjjjjjjjjjjjjjjjl5nq",
"srbeiehhhihiihiiiiijttttttttijjittttttttttttttttjittttttjitkttttttttttttttttiiijttttttttttttttttijttttttiikkttttttttttttttttiiijttttttttttttttttjittttttttjj5us",
"vwbhhhhiiiiiiiiiitjitttttttttkikttttttttttttttttiijtttttiijkttttttttttttttttkkjittttttttttttttttijitttttjiikttttttttttttttttkjjittttttttttttttttiijittttttxjyuv",
"zwbhhhiiiiiiiiiitttttttttttttkkkttttttttttttttttjiijttttjikkttttttttttttttttkkjittttttttttttttttjiijttttijjktttttttttttttttkkijittttttttttttttttjiijttttttxjyuz",
"A[ciiiiiiiiiiiiittttttttttttttttttttttttttttttttttttttttttttttttttttttttttttttttttttttttttttttttttttttttttttttttttttttttttttttttttttttttttttttttttttttttttxjyBA",
"z[3iiiiiiiiiiiiiitttttttttttttttttttttttttttttttttttttttttttttttttttttttttttttttttttttttttttttttttttttttttttttttttttttttttttttttttttttttttttttttttttttttttxjyBz",
"A[{iiiiiiihhChhCitttttttttttttttttttttttttttttttttttttttttttttttttttttttttttttttttttttttttttttttttttttttttttttttttttttttttttttttttttttttttttttttttttttttttxjyDA",
"EFhChhhhCChhChhCCtttttttttttttttttttttttttttttttttttttttttttttttttttttttttttttttttttttttttttttttttttttttttttttttttttttttttttttttttttttttttttttttttttttttttxjyuE",
"GFhihhhhCCCCiCCC]ttttttttttttttttttttttktttttttttttttttttttttttttttttttttttttttktttttttttttttkiHtttttttttttttttttttttttttttttttttttttttkttttttttttttttttttxjyuG",
"I}hCCCCCCtJJJJJJJttttttttttttttttttttttktttttttttttttttttttttttttttttttttttttttjtttttttttttttkiittttttttttttkktttttttttttttttttttttttttittttttttttttttttttxjyuI",
"K9JJJJJJJJJJJJJJJittttttttttttttttttttjittttttttttttttttttttttttttttttttttttttiittttttttttttttHittttttttttttiiHittttttttttttttttttttttHittttttttttttttttttHx5DK",
"KLJJJJJJJJMHMMMHHittttttttttttttttttttijttttttttttttttttttttttttttttttttttttttHittttttttttttttiittttttttttttHiiittttttttttttttttttttttiittttttttttttttttttHx5DK",
"NLjjMMMMjMMMMiiitHHHHHHjHHHHHHHHHHHHHHHHHHHHHHHHHHHHHHiHHHHHHHHHHHHHjHHHHHHHHHHiHHHHHHHHHHHHHHHHHHHHHHHHHHHHHHHHHHHHjHHHHHHHHHHHHHHHHHHHHHHHHHHHHHHHHHHHHttxyDN",
"N1]]iiiiiiiittiittkkijiittiiijiikkttttiittttttkkttiiHittiijittkkttttjiijiHiiiiijttttjiijitttjiijttttttttkkttttjjiiHiiijittjjiHiiijjiijHitttijijittttttttttxO5nN",
"PQ5,,5RRRR,5%S5,%SRR,5RR,RRRR,,5RRRR%,RR,5S5%SRR%SRSRR,5RRRR,5RRRR%,RRRRRR,RRRRRRR%SRRRRS%,5RRRR,5,5S%,5,55,%RRR,5RRRR%S%RRR5,,5RRRRRRRR%R5,5,RR,5,5S%,5RRRSQTP",
"sUVVWVVVWVWVWXWVWWXXXWXXWWXXXXXXXXXXXXXXXXXXXWXXXXWWWWWWWWWWWWWWWWWWWWWWWWWWWWWWWWWWWWVVVVVVVVVVWWWWVVVVVVWVWWVVVWVVVVVVWWVVWVVWVVVVVVVVVVVVWWVVWWWWVVVVVVVVUss",
"YYYYYYYYYYYYYYYYYYYYYYYYYYYYYYYYYYYYYYYYYYYYYYYYYYYYYYYYYYYYYYYYYYYYYYYYYYYYYYYYYYYYYYYYYYYYYYYYYYYYYYYYYYYYYYYYYYYYYYYYYYYYYYYYYYYYYYYYYYYYYYYYYYYYYYYYYYYYYYY",
"ZZZZZZZZZZZZZZZZZZZZZZZZZZZZZZZZZZZZZZZZZZZZZZZZZZZZZZZZZZZZZZZZZZZZZZZZZZZZZZZZZZZZZZZZZZZZZZZZZZZZZZZZZZZZZZZZZZZZZZZZZZZZZZZZZZZZZZZZZZZZZZZZZZZZZZZZZZZZZZZ"};
