/* XPM */
static char * taskbarbg_xpm[] = {
"1 30 19 1",
" 	c None",
".	c #3168D5",
"+	c #3888E9",
"@	c #4993E6",
"#	c #307BE5",
"$	c #286ADD",
"%	c #245DD7",
"&	c #2359D6",
"*	c #2257D5",
"=	c #2157D7",
"-	c #225AD9",
";	c #235BD9",
">	c #235CDB",
",	c #2660DD",
"'	c #2661DD",
")	c #2662DF",
"!	c #2561DE",
"~	c #1E50C4",
"{	c #1941A5",
".",
"+",
"@",
"#",
"$",
"%",
"&",
"*",
"*",
"*",
"=",
"=",
"-",
";",
">",
">",
",",
">",
"'",
"'",
",",
"'",
")",
")",
")",
")",
"!",
"-",
"~",
"{"};
